<svg xmlns="http://www.w3.org/2000/svg" xmlns:xlink="http://www.w3.org/1999/xlink" width="198" height="55"><defs><path id="i" d="M208.164 74.89l-10.406-23.918a3.282 3.282 0 0 0-3.01-1.972h-36.891a3.281 3.281 0 0 0-3.01 4.59l9.838 22.61-9.837 22.61a3.282 3.282 0 0 0 3.009 4.589h36.892a3.28 3.28 0 0 0 3.009-1.972l10.406-23.918a3.275 3.275 0 0 0 0-2.618z"/><path id="j" d="M182.29 62.925a4.778 4.778 0 1 0 .001-9.556 4.778 4.778 0 0 0 0 9.556z"/><path id="k" d="M190.566 73.188c-1.772-.455-4.38-1.944-5.85-4.165-.04-.062-.078-.126-.117-.189 0 0 .264-1.212.268-1.212 0 0 .873-3.24-2.489-4.243-.249-.074-.464-.202-.987-.317-.62-.136-1.509-.11-1.716-.079h-.04c-6.275.68-9.76 5.38-11.835 8.855a1.85 1.85 0 0 0 .201 2.171l.047.053-3.197 7.291c-.026-.014-.049-.032-.077-.044l-4.36-1.912a1.771 1.771 0 0 0-2.333.911l-5.119 11.678a1.77 1.77 0 0 0 .91 2.332l2.79 1.224a2.613 2.613 0 0 0 2.597 2.415 2.612 2.612 0 0 0 2.393-1.56 2.608 2.608 0 0 0-.375-2.702l4.351-9.924-.004.011-1.149 2.621 5.133-11.708h-.02l.032-.026-.012.026c.723-.06 1.181-.626 1.377-.954 1.135-1.902 2.61-4 4.678-5.427.033-.022.078.008.07.046l-1.665 7.77c-.217 1.013.061 1.947.618 2.71a.04.04 0 0 1 .008.027l-.528 7.068v.007c-.24 1.136-2.35 4.966-4.45 8.26-.675 1.061-.5 2.51.506 3.261a2.36 2.36 0 0 0 3.407-.616c2.507-3.922 5.258-8.687 5.258-10.815 0-.733.1-2.14.216-3.54.003-.04.056-.056.08-.022 1.16 1.756 2.445 3.761 2.846 4.563a.042.042 0 0 0 .002.005c.291.987.285 5.123.095 8.426a2.363 2.363 0 0 0 2.36 2.496c1.242 0 2.283-.97 2.355-2.225.225-3.908.315-8.934-.528-10.692-.659-1.37-2.912-4.77-3.928-6.282a.039.039 0 0 1-.003-.04c.112-.23.202-.48.26-.753l.938-4.376c1.738 1.55 3.9 2.635 6.064 3.19a1.855 1.855 0 0 0 .922-3.594z"/></defs><use fill="#231f20" xlink:href="#a" transform="translate(-152 -49)"/><use fill="#231f20" xlink:href="#b" transform="translate(-152 -49)"/><use fill="#231f20" xlink:href="#c" transform="translate(-152 -49)"/><use fill="#231f20" xlink:href="#d" transform="translate(-152 -49)"/><use fill="#231f20" xlink:href="#e" transform="translate(-152 -49)"/><use fill="#231f20" xlink:href="#f" transform="translate(-152 -49)"/><use fill="#231f20" xlink:href="#g" transform="translate(-152 -49)"/><use fill="#231f20" xlink:href="#h" transform="translate(-152 -49)"/><use fill="#ffca05" xlink:href="#i" transform="translate(-152 -49)"/><use xlink:href="#j" transform="translate(-152 -49)"/><use xlink:href="#k" transform="translate(-152 -49)"/><use fill="#fff" xlink:href="#l" transform="translate(-152 -49)"/></svg>
